<svg width="252" height="106" viewBox="0 0 252 106" fill="none" xmlns="http://www.w3.org/2000/svg">
<path d="M0.57919 83.1193V72.9773L45.3235 2.18182H52.6815V17.892H47.7099L13.9031 71.3864V72.1818H74.1587V83.1193H0.57919ZM48.5053 104V80.0369V75.3139V2.18182H60.2383V104H48.5053ZM126 105.392C118.509 105.392 112.129 103.354 106.859 99.277C101.589 95.1671 97.5625 89.2178 94.7784 81.429C91.9943 73.607 90.6023 64.161 90.6023 53.0909C90.6023 42.0871 91.9943 32.6908 94.7784 24.902C97.5956 17.08 101.639 11.1141 106.909 7.00426C112.212 2.86126 118.576 0.789769 126 0.789769C133.424 0.789769 139.771 2.86126 145.041 7.00426C150.344 11.1141 154.388 17.08 157.172 24.902C159.989 32.6908 161.398 42.0871 161.398 53.0909C161.398 64.161 160.006 73.607 157.222 81.429C154.438 89.2178 150.411 95.1671 145.141 99.277C139.871 103.354 133.491 105.392 126 105.392ZM126 94.4545C133.424 94.4545 139.191 90.875 143.301 83.7159C147.411 76.5568 149.466 66.3485 149.466 53.0909C149.466 44.2746 148.521 36.7675 146.632 30.5696C144.776 24.3717 142.091 19.6487 138.578 16.4006C135.098 13.1525 130.905 11.5284 126 11.5284C118.642 11.5284 112.892 15.1577 108.749 22.4162C104.606 29.6416 102.534 39.8665 102.534 53.0909C102.534 61.9072 103.462 69.3977 105.318 75.5625C107.174 81.7273 109.842 86.4171 113.322 89.6321C116.836 92.8471 121.062 94.4545 126 94.4545ZM177.903 83.1193V72.9773L222.648 2.18182H230.006V17.892H225.034L191.227 71.3864V72.1818H251.483V83.1193H177.903ZM225.83 104V80.0369V75.3139V2.18182H237.562V104H225.83Z" fill="white"/>
</svg>
